HIERARCHY
ROOT joint_Root
{
	OFFSET 0.0 0.0 0.0
	CHANNELS 6 Xposition Yposition Zposition Zrotation Xrotation Yrotation 
	JOINT Hips
	{
		OFFSET -17.1583 93.1646 452.98
		CHANNELS 6 Xposition Yposition Zposition Zrotation Xrotation Yrotation 
		JOINT Spine
		{
			OFFSET 15.7357 0.0 0.0
			CHANNELS 6 Xposition Yposition Zposition Zrotation Xrotation Yrotation 
			JOINT Chest
			{
				OFFSET 8.98455 -0.406207 0.0
				CHANNELS 6 Xposition Yposition Zposition Zrotation Xrotation Yrotation 
				JOINT Neck
				{
					OFFSET 16.3773 0.0 0.0
					CHANNELS 6 Xposition Yposition Zposition Zrotation Xrotation Yrotation 
					JOINT Head
					{
						OFFSET 6.45672 0.0 0.0
						CHANNELS 6 Xposition Yposition Zposition Zrotation Xrotation Yrotation 
						End Site
						{
							OFFSET 0.0 0.0 0.0
						}
					}
				}
				JOINT Shoulder_L
				{
					OFFSET 12.9942 -0.242716 4.98039
					CHANNELS 6 Xposition Yposition Zposition Zrotation Xrotation Yrotation 
					JOINT UpperArm_L
					{
						OFFSET 5.34809 0.0 0.0
						CHANNELS 6 Xposition Yposition Zposition Zrotation Xrotation Yrotation 
						JOINT LowerArm_L
						{
							OFFSET 24.3286 1.87007e-05 0.0
							CHANNELS 6 Xposition Yposition Zposition Zrotation Xrotation Yrotation 
							JOINT Hand_L
							{
								OFFSET 22.2916 0.0 0.0
								CHANNELS 6 Xposition Yposition Zposition Zrotation Xrotation Yrotation 
								End Site
								{
									OFFSET 0.0 0.0 0.0
								}
							}
						}
					}
				}
				JOINT Shoulder_R
				{
					OFFSET 12.9945 -0.242716 -4.98039
					CHANNELS 6 Xposition Yposition Zposition Zrotation Xrotation Yrotation 
					JOINT UpperArm_R
					{
						OFFSET -5.34813 0.0 0.0
						CHANNELS 6 Xposition Yposition Zposition Zrotation Xrotation Yrotation 
						JOINT LowerArm_R
						{
							OFFSET -24.3289 0.000322201 0.0
							CHANNELS 6 Xposition Yposition Zposition Zrotation Xrotation Yrotation 
							JOINT Hand_R
							{
								OFFSET -22.2915 -0.000108084 0.0
								CHANNELS 6 Xposition Yposition Zposition Zrotation Xrotation Yrotation 
								End Site
								{
									OFFSET 0.0 0.0 0.0
								}
							}
						}
					}
				}
			}
		}
		JOINT UpperLeg_L
		{
			OFFSET -2.19248 -6.46944 0.0
			CHANNELS 6 Xposition Yposition Zposition Zrotation Xrotation Yrotation 
			JOINT LowerLeg_L
			{
				OFFSET 39.0811 0.0 -1.23785e-05
				CHANNELS 6 Xposition Yposition Zposition Zrotation Xrotation Yrotation 
				JOINT Foot_L
				{
					OFFSET 40.9854 0.0 -1.26872e-05
					CHANNELS 6 Xposition Yposition Zposition Zrotation Xrotation Yrotation 
					JOINT Toes_L
					{
						OFFSET 11.7543 0.0 0.0
						CHANNELS 6 Xposition Yposition Zposition Zrotation Xrotation Yrotation 
						End Site
						{
							OFFSET 0.0 0.0 0.0
						}
					}
				}
			}
		}
		JOINT UpperLeg_R
		{
			OFFSET -2.19251 6.46944 0.0
			CHANNELS 6 Xposition Yposition Zposition Zrotation Xrotation Yrotation 
			JOINT LowerLeg_R
			{
				OFFSET -39.0811 -0.00228153 -0.0401928
				CHANNELS 6 Xposition Yposition Zposition Zrotation Xrotation Yrotation 
				JOINT Foot_R
				{
					OFFSET -40.9854 0.0 0.0
					CHANNELS 6 Xposition Yposition Zposition Zrotation Xrotation Yrotation 
					JOINT Toes_R
					{
						OFFSET -11.7543 0.0 0.0
						CHANNELS 6 Xposition Yposition Zposition Zrotation Xrotation Yrotation 
						End Site
						{
							OFFSET 0.0 0.0 0.0
						}
					}
				}
			}
		}
	}
}
MOTION
Frames:	6
Frame Time:	0.0333333
0.000000 0.000000 0.000000 0.000000 0.000000 -0.000000 -1.122510 89.358600 508.713000 -93.482700 11.252200 174.181000 15.735700 0.000005 -0.000001 161.146000 88.581000 -161.973000 8.984550 -0.406207 -0.000000 -6.832820 2.785750 -1.490870 16.377300 -0.000001 -0.000001 1.884920 5.451300 -3.232980 6.456720 -0.000001 -0.000000 8.310390 5.493540 -0.976450 12.994200 -0.242716 4.980390 -92.804800 7.882220 -70.341000 5.348090 -0.000007 -0.000001 -67.573800 -17.148900 7.177030 24.328600 0.000019 0.000005 8.816090 23.551800 -21.213500 22.291600 -0.000001 0.000005 47.785700 4.553670 15.703400 12.994500 -0.242716 -4.980390 88.574700 4.981220 -74.010500 -5.348130 -0.000001 -0.000004 -70.178800 3.732760 1.455050 -24.328900 0.000322 -0.000009 -1.676080 -3.682930 -24.481100 -22.291500 -0.000108 -0.000004 53.478600 5.516060 -7.194460 -2.192480 -6.469440 -0.000000 171.656000 -1.783220 -31.529000 39.081100 -0.000007 -0.000012 0.399551 -0.573418 34.869100 40.985400 -0.000006 -0.000013 6.327860 5.788900 -65.440400 11.754300 -0.000000 0.000003 0.000507 0.158606 -10.144200 -2.192510 6.469440 -0.000001 172.191000 12.281700 -179.288000 -39.081100 -0.002282 -0.040193 0.107521 -0.123615 40.140500 -40.985400 0.000008 0.000006 -3.398260 -16.736700 -55.009300 -11.754300 -0.000006 -0.000006 -0.039064 -0.256356 -27.101000
0.000000 0.000000 0.000000 0.000000 0.000000 -0.000000 -1.355180 89.648500 504.844000 -93.591400 10.553000 176.368000 15.735700 0.000005 -0.000001 128.436000 88.614600 -129.152000 8.984550 -0.406207 -0.000000 -5.585460 1.803650 -1.345990 16.377300 -0.000001 -0.000001 2.266150 5.668610 -3.435520 6.456720 -0.000001 -0.000000 8.582240 6.023320 -0.901335 12.994200 -0.242716 4.980390 -92.740300 7.781680 -70.531200 5.348090 -0.000007 -0.000001 -70.144000 -14.096600 5.476680 24.328600 0.000019 0.000005 9.868260 22.961500 -24.032300 22.291600 -0.000001 0.000005 48.022400 4.528720 16.122700 12.994500 -0.242716 -4.980390 88.582200 4.866630 -73.736300 -5.348130 -0.000001 -0.000004 -69.868300 3.301970 2.192610 -24.328900 0.000322 -0.000009 -1.451860 -4.284420 -18.727200 -22.291500 -0.000108 -0.000004 52.763000 5.507080 -6.818210 -2.192480 -6.469440 -0.000000 171.018000 -1.775330 -26.458700 39.081100 -0.000007 -0.000012 0.480728 -0.690288 34.855200 40.985400 -0.000006 -0.000013 7.308900 6.019120 -68.177000 11.754300 -0.000000 0.000003 0.000555 0.157692 -10.181300 -2.192510 6.469440 -0.000001 171.792000 10.976200 176.337000 -39.081100 -0.002282 -0.040193 0.187515 -0.150767 50.710600 -40.985400 0.000008 0.000006 0.289705 -18.470800 -44.987600 -11.754300 -0.000006 -0.000006 0.002420 0.097705 -12.611000
0.000000 0.000000 0.000000 0.000000 0.000000 -0.000000 -1.728310 89.830600 501.535000 -93.961900 10.608800 177.707000 15.735700 0.000005 -0.000001 109.082000 88.436200 -109.854000 8.984550 -0.406207 -0.000000 -4.802780 1.106130 -1.498400 16.377300 -0.000001 -0.000001 2.553230 5.988240 -3.614910 6.456720 -0.000001 -0.000000 8.752400 6.717440 -0.801551 12.994200 -0.242716 4.980390 -92.762700 7.867940 -70.581600 5.348090 -0.000007 -0.000001 -71.365000 -12.049100 3.880050 24.328600 0.000019 0.000005 12.882800 24.223500 -29.132600 22.291600 -0.000001 0.000005 48.296800 4.523140 16.214700 12.994500 -0.242716 -4.980390 88.608600 4.720700 -73.557400 -5.348130 -0.000001 -0.000004 -69.548600 2.643550 3.345700 -24.328900 0.000322 -0.000009 -1.109170 -4.395410 -14.162200 -22.291500 -0.000108 -0.000004 51.513400 5.495230 -6.340030 -2.192480 -6.469440 -0.000000 170.022000 -2.727030 -22.434700 39.081100 -0.000007 -0.000012 0.535982 -0.788565 34.205200 40.985400 -0.000006 -0.000013 8.278840 6.304400 -70.417000 11.754300 -0.000000 0.000003 0.000291 0.162575 -9.983090 -2.192510 6.469440 -0.000001 171.712000 8.279000 170.666000 -39.081100 -0.002282 -0.040193 0.166127 -0.091064 60.798800 -40.985400 0.000008 0.000006 2.288300 -10.834300 -45.573800 -11.754300 -0.000006 -0.000006 0.001006 0.148547 -10.549000
0.000000 0.000000 0.000000 0.000000 0.000000 -0.000000 -1.831740 90.215700 498.419000 -93.472400 10.443100 178.808000 15.735700 0.000005 -0.000001 91.514100 88.094200 -92.054400 8.984550 -0.406207 -0.000000 -3.954850 0.155888 -1.075630 16.377300 -0.000001 -0.000001 2.737770 6.301720 -3.951420 6.456720 -0.000001 -0.000000 8.715410 7.407420 -0.624290 12.994200 -0.242716 4.980390 -92.868100 8.161410 -70.561600 5.348090 -0.000007 -0.000001 -71.629900 -10.916100 2.368770 24.328600 0.000019 0.000005 17.545700 25.949700 -35.845900 22.291600 -0.000001 0.000005 48.869200 4.481600 16.903200 12.994500 -0.242716 -4.980390 88.649400 4.553800 -73.460500 -5.348130 -0.000001 -0.000004 -68.900500 1.981020 4.929730 -24.328900 0.000322 -0.000009 -0.767277 -3.975700 -10.914500 -22.291500 -0.000108 -0.000004 51.079700 5.487080 -6.021900 -2.192480 -6.469440 -0.000000 170.181000 -4.201850 -18.039600 39.081100 -0.000007 -0.000012 0.551646 -0.868102 32.436100 40.985400 -0.000006 -0.000013 9.160910 7.439260 -72.115700 11.754300 -0.000000 0.000003 0.000276 0.162838 -9.972420 -2.192510 6.469440 -0.000001 172.961000 5.209100 165.476000 -39.081100 -0.002282 -0.040193 0.107821 -0.044027 67.188400 -40.985400 0.000008 0.000006 2.129970 -5.474570 -49.110800 -11.754300 -0.000006 -0.000006 0.000234 0.163627 -9.936890
0.000000 0.000000 0.000000 0.000000 0.000000 -0.000000 -1.713970 90.764700 495.457000 -92.387300 10.031300 179.331000 15.735700 0.000005 -0.000001 79.453500 87.714300 -79.571900 8.984550 -0.406207 -0.000000 -3.272890 -0.824907 -0.260449 16.377300 -0.000001 -0.000001 2.938890 6.499030 -4.174520 6.456720 -0.000001 -0.000000 8.411250 7.943870 -0.732335 12.994200 -0.242716 4.980390 -92.810700 8.047950 -70.675300 5.348090 -0.000007 -0.000001 -71.843700 -10.408900 0.832011 24.328600 0.000019 0.000005 23.056200 26.984900 -43.163100 22.291600 -0.000001 0.000005 49.047500 4.462670 17.210400 12.994500 -0.242716 -4.980390 88.780500 4.064510 -73.282700 -5.348130 -0.000001 -0.000004 -68.302100 0.765110 6.636870 -24.328900 0.000322 -0.000009 -0.459179 -3.064500 -8.494160 -22.291500 -0.000108 -0.000004 50.919000 5.475100 -5.563010 -2.192480 -6.469440 -0.000000 171.301000 -6.195840 -13.598900 39.081100 -0.000007 -0.000012 0.508129 -0.896161 29.555100 40.985400 -0.000006 -0.000013 9.868450 9.263570 -73.339700 11.754300 -0.000000 0.000003 -0.000200 0.170921 -9.644170 -2.192510 6.469440 -0.000001 175.063000 2.169370 160.626000 -39.081100 -0.002282 -0.040193 0.051464 -0.017945 69.636000 -40.985400 0.000008 0.000006 0.521620 -8.146830 -52.356800 -11.754300 -0.000006 -0.000006 0.000160 0.164930 -9.883980
0.000000 0.000000 0.000000 0.000000 0.000000 -0.000000 -1.431880 91.357700 492.693000 -91.021000 9.155620 179.200000 15.735700 0.000005 -0.000001 69.229600 87.387500 -68.857300 8.984550 -0.406207 -0.000000 -2.875020 -1.886760 0.697455 16.377300 -0.000001 -0.000001 2.916460 6.455700 -4.401490 6.456720 -0.000001 -0.000000 8.164980 8.398830 -0.696020 12.994200 -0.242716 4.980390 -92.629800 7.608720 -70.868800 5.348090 -0.000007 -0.000001 -72.305000 -10.864300 -0.932455 24.328600 0.000019 0.000005 28.076300 26.358800 -50.224700 22.291600 -0.000001 0.000005 49.877600 4.399800 18.224300 12.994500 -0.242716 -4.980390 88.950700 3.419110 -72.927800 -5.348130 -0.000001 -0.000004 -67.630000 -0.576409 8.168010 -24.328900 0.000322 -0.000009 -0.253106 -2.302330 -6.245200 -22.291500 -0.000108 -0.000004 50.410900 5.458580 -4.947530 -2.192480 -6.469440 -0.000000 172.986000 -7.820830 -9.485740 39.081100 -0.000007 -0.000012 0.420642 -0.868142 25.852900 40.985400 -0.000006 -0.000013 10.434500 11.744500 -74.056400 11.754300 -0.000000 0.000003 -0.000073 0.168849 -9.728330 -2.192510 6.469440 -0.000001 177.190000 -0.283807 156.388000 -39.081100 -0.002282 -0.040193 0.000124 0.001187 68.462500 -40.985400 0.000008 0.000006 -1.080950 -12.501300 -57.165700 -11.754300 -0.000006 -0.000006 -0.000660 0.178114 -9.348470
